#!OML:ASF H:\Terrain\Walking\May29\JustinRory\rory.ASF
:FULLY-SPECIFIED
:DEGREES
342
root 12.6024 16.353 5.59888 -9.58731 40.8045 -7.7853
lowerback 17.8558 4.28154 0.651122
upperback 7.96258 5.94362 0.592887
thorax -1.43595 3.05766 -0.847085
lowerneck 3.24116 -18.3722 -16.7996
upperneck 3.04085 -25.9826 18.5743
head 5.04207 -12.9851 6.35144
rclavicle 4.33351e-014 -1.98785e-014
rhumerus -10.1396 9.74651 -40.3913
rradius 13.2983
rwrist 36.4753
rhand -18.8246 28.8095
rfingers 7.12502
rthumb 7.47446 -1.03842
lclavicle 4.33351e-014 -1.98785e-014
lhumerus -44.3352 13.8458 32.5613
lradius 40.2651
lwrist 13.5165
lhand -32.4268 23.0351
lfingers 7.12502
lthumb -5.66082 52.9395
rfemur -18.2934 -2.84635 -5.24236
rtibia 29.8006
rfoot -7.14917 -21.375
rtoes 8.01113
lfemur -44.0687 -0.0903525 -12.133
ltibia 64.184
lfoot -13.1883 -2.01874
ltoes -1.08384
343
root 12.5168 16.3457 5.78631 -9.23356 42.1694 -7.59724
lowerback 17.519 4.12549 -0.110304
upperback 7.99943 5.62472 0.592525
thorax -1.2996 2.88473 -0.339652
lowerneck 3.39064 -18.7078 -16.7765
upperneck 2.60105 -26.4781 19.2798
head 5.07401 -13.2381 6.48943
rclavicle -4.05521e-014 3.53837e-014
rhumerus -10.5473 11.8379 -41.7189
rradius 13.5831
rwrist 33.6852
rhand -15.0217 29.8386
rfingers 7.12502
rthumb 11.1438 0.154461
lclavicle -4.05521e-014 3.53837e-014
lhumerus -43.7859 13.0843 33.4137
lradius 42.7034
lwrist 15.5142
lhand -33.2594 24.454
lfingers 7.12502
lthumb -6.46465 54.3354
rfemur -16.5061 -1.87742 -5.86629
rtibia 26.8176
rfoot -6.0505 -21.4104
rtoes 3.88957
lfemur -44.4514 -0.778636 -11.9226
ltibia 64.476
lfoot -13.3312 -2.55268
ltoes -1.89981
344
root 12.4216 16.3335 5.97179 -9.40834 43.3262 -8.28553
lowerback 17.2961 3.92493 -0.202577
upperback 7.85893 5.3498 0.626283
thorax -1.34638 2.74408 -0.194052
lowerneck 3.76151 -18.9776 -16.5632
upperneck 2.13697 -26.9002 20.0222
head 5.03475 -13.47 6.65434
rclavicle -6.71892e-014 1.07344e-014
rhumerus -11.0955 12.7983 -43.3247
rradius 13.7757
rwrist 31.7811
rhand -11.6512 31.2496
rfingers 7.12502
rthumb 14.3931 1.76865
lclavicle -6.71892e-014 1.07344e-014
lhumerus -43.1379 12.4157 33.9237
lradius 44.9164
lwrist 17.1121
lhand -33.5764 25.4204
lfingers 7.12502
lthumb -6.77068 55.2921
rfemur -15.0865 -0.687808 -5.59161
rtibia 24.4501
rfoot -5.40856 -21.6399
rtoes 3.4198
lfemur -45.0417 -1.28572 -10.9599
ltibia 64.8154
lfoot -13.4073 -2.89606
ltoes -5.11119
345
root 12.3151 16.3004 6.17092 -10.2361 44.4469 -9.70963
lowerback 17.1976 3.65472 0.143914
upperback 7.72419 5.05699 0.824101
thorax -1.4283 2.60192 -0.127129
lowerneck 4.23177 -19.1859 -16.5016
upperneck 1.67037 -27.2427 20.7014
head 4.97828 -13.6742 6.84187
rclavicle -6.63941e-014 -7.95139e-015
rhumerus -11.9163 16.8558 -45.2509
rradius 14.4051
rwrist 26.4279
rhand -8.73493 32.461
rfingers 7.12502
rthumb 17.2016 3.20236
lclavicle -6.63941e-014 -7.95139e-015
lhumerus -42.4062 12.0404 34.4626
lradius 46.8913
lwrist 18.5989
lhand -34.1803 25.0632
lfingers 7.12502
lthumb -7.35361 54.9154
rfemur -13.6792 0.323257 -4.54487
rtibia 22.6707
rfoot -5.24508 -21.8424
rtoes 6.07154
lfemur -45.6409 -1.71259 -9.33683
ltibia 65.2386
lfoot -13.4771 -3.55386
ltoes -6.9457
346
root 12.2055 16.2487 6.38187 -11.3545 45.6613 -11.154
lowerback 16.9389 3.44727 0.400761
upperback 7.92918 4.84593 1.17228
thorax -1.08672 2.50442 0.157255
lowerneck 4.41262 -19.4343 -16.4383
upperneck 1.16346 -27.5778 21.1925
head 4.92691 -13.8622 6.94668
rclavicle 2.88238e-014 4.77083e-015
rhumerus -12.8006 22.0227 -47.0987
rradius 15.4105
rwrist 19.2495
rhand -6.69669 33.0711
rfingers 7.12502
rthumb 19.1625 3.99513
lclavicle 2.88238e-014 4.77083e-015
lhumerus -41.5752 11.7224 35.5534
lradius 49.2712
lwrist 20.2579
lhand -34.9748 23.3095
lfingers 7.12502
lthumb -8.12049 53.1335
rfemur -12.1101 1.15367 -3.37704
rtibia 21.3905
rfoot -4.18546 -21.8694
rtoes 5.81875
lfemur -45.947 -2.31308 -7.65633
ltibia 65.7061
lfoot -13.6364 -4.5935
ltoes -6.04819
347
root 12.0961 16.2073 6.58961 -12.6179 46.856 -12.655
lowerback 17.0197 3.2369 1.15341
upperback 7.98867 4.69394 1.15845
thorax -1.00467 2.45233 -0.251953
lowerneck 4.50098 -19.7552 -16.0875
upperneck 1.02943 -28.044 21.6869
head 4.9899 -14.0968 6.97536
rclavicle 2.42517e-014 -7.95139e-016
rhumerus -13.8809 24.3376 -49.2712
rradius 16.1614
rwrist 15.0076
rhand -4.41409 34.1551
rfingers 7.12502
rthumb 21.3563 5.31196
lclavicle 2.42517e-014 -7.95139e-016
lhumerus -40.5735 10.7448 36.3204
lradius 51.9318
lwrist 21.593
lhand -34.7515 21.5839
lfingers 7.12502
lthumb -7.90498 51.4161
rfemur -10.8643 2.32464 -2.18083
rtibia 20.8873
rfoot -1.74022 -21.5226
rtoes 1.70449
lfemur -46.1094 -2.92788 -6.01349
ltibia 66.0872
lfoot -13.6905 -5.40637
ltoes -5.94335
348
root 11.9832 16.1754 6.77727 -13.434 47.7957 -13.737
lowerback 17.0323 3.13705 1.49178
upperback 7.98951 4.62095 1.17456
thorax -0.985856 2.42661 -0.411659
lowerneck 4.66304 -20.0262 -16.0272
upperneck 0.91163 -28.4656 22.1785
head 5.07977 -14.3148 7.04579
rclavicle 2.0276e-014 -3.81667e-014
rhumerus -14.9828 28.5833 -51.387
rradius 17.4102
rwrist 9.00807
rhand -1.83797 34.1339
rfingers 7.12502
rthumb 23.8288 5.59182
lclavicle 2.0276e-014 -3.81667e-014
lhumerus -39.8553 9.98554 37.1803
lradius 54.5815
lwrist 22.4127
lhand -33.6056 21.8421
lfingers 7.12502
lthumb -6.79887 51.713
rfemur -10.6546 3.18259 -1.40635
rtibia 21.6263
rfoot -0.307957 -20.0215
rtoes 0.719408
lfemur -46.4602 -3.36746 -4.69456
ltibia 66.3422
lfoot -13.5741 -5.87985
ltoes -6.16986
349
root 11.8587 16.1559 6.94893 -14.1154 48.8147 -14.478
lowerback 17.3077 2.95723 1.41914
upperback 7.98629 4.38836 1.22337
thorax -1.14534 2.30928 -0.297165
lowerneck 4.95671 -20.1508 -16.0979
upperneck 0.657047 -28.6759 22.594
head 5.07553 -14.4453 7.16803
rclavicle 4.33351e-014 -2.62396e-014
rhumerus -15.0858 28.2939 -52.6355
rradius 18.0481
rwrist 8.21494
rhand 0.822481 34.3608
rfingers 7.12502
rthumb 26.3779 6.17561
lclavicle 4.33351e-014 -2.62396e-014
lhumerus -39.7844 9.47853 38.0525
lradius 57.7467
lwrist 23.3452
lhand -32.7334 24.5759
lfingers 7.12502
lthumb -5.95679 54.4722
rfemur -10.947 2.47909 -0.820922
rtibia 23.6635
rfoot -1.67406 -21.8685
rtoes -4.3795
lfemur -46.7947 -4.12492 -3.6128
ltibia 66.4937
lfoot -13.5378 -6.20575
ltoes -7.18466
350
root 11.724 16.1445 7.1096 -14.9684 49.8058 -15.3487
lowerback 17.8398 2.72903 1.51311
upperback 8.02717 4.12714 1.28305
thorax -1.37861 2.18264 -0.26961
lowerneck 5.46214 -20.1911 -16.3193
upperneck -0.097398 -28.7542 23.3729
head 4.9472 -14.5465 7.47204
rclavicle -2.78299e-014 -1.66979e-014
rhumerus -15.2475 29.2164 -53.876
rradius 19.0471
rwrist 6.52007
rhand 3.18086 34.384
rfingers 7.12502
rthumb 28.6334 6.55782
lclavicle -2.78299e-014 -1.66979e-014
lhumerus -39.7809 9.35154 39.0674
lradius 60.9956
lwrist 24.2807
lhand -32.6379 26.2282
lfingers 7.12502
lthumb -5.86462 56.1271
rfemur -11.6251 0.270133 0.0894735
rtibia 26.4663
rfoot -4.11358 -20.4614
rtoes 0.594908
lfemur -47.1654 -5.11104 -2.43547
ltibia 66.5827
lfoot -13.4856 -6.16779
ltoes -9.551
351
root 11.6109 16.1182 7.24485 -15.487 50.2974 -15.7988
lowerback 18.4608 2.61793 1.83544
upperback 8.10175 4.05469 1.20599
thorax -1.59174 2.1576 -0.548593
lowerneck 6.01112 -20.1858 -16.7304
upperneck -1.09771 -28.7769 24.5249
head 4.82352 -14.6378 7.92235
rclavicle -2.66371e-014 6.36111e-015
rhumerus -15.3025 31.0983 -54.9853
rradius 20.3003
rwrist 2.84312
rhand 5.75995 33.4671
rfingers 7.12502
rthumb 31.0946 6.08365
lclavicle -2.66371e-014 6.36111e-015
lhumerus -39.7397 9.43573 40.3585
lradius 63.7794
lwrist 24.7643
lhand -32.4556 25.0924
lfingers 7.12502
lthumb -5.68859 54.9961
rfemur -12.9523 -3.51859 0.707805
rtibia 29.448
rfoot -3.26297 -16.8324
rtoes -4.97899
lfemur -47.351 -5.92566 -1.55959
ltibia 66.6882
lfoot -13.5311 -5.73896
ltoes -11.0972
352
root 11.5415 16.1107 7.36467 -16.4313 51.174 -16.3062
lowerback 19.1522 2.31028 2.5259
upperback 8.37867 3.80349 1.09692
thorax -1.60107 2.06246 -1.02795
lowerneck 6.36515 -20.2536 -17.0117
upperneck -1.85831 -28.8859 25.4749
head 4.7711 -14.7524 8.25709
rclavicle -1.02573e-013 -8.74653e-015
rhumerus -15.035 32.4866 -55.7181
rradius 21.4326
rwrist -1.4659
rhand 8.44612 32.0561
rfingers 7.12502
rthumb 33.6511 5.19558
lclavicle -1.02573e-013 -8.74653e-015
lhumerus -39.7246 9.45946 41.8748
lradius 66.444
lwrist 24.8261
lhand -31.7261 23.8299
lfingers 7.12502
lthumb -4.98424 53.7513
rfemur -13.6542 -7.36245 1.00329
rtibia 32.1929
rfoot -2.39129 -14.3186
rtoes -10.8626
lfemur -47.0601 -7.50966 -1.01119
ltibia 66.7651
lfoot -14.0017 -4.76602
ltoes -13.2305
353
root 11.4824 16.1504 7.47902 -17.3432 51.7446 -17.5459
lowerback 18.8621 2.11238 3.37851
upperback 8.70677 3.69717 1.27969
thorax -1.06 2.04816 -1.26523
lowerneck 6.32978 -20.4178 -16.9782
upperneck -2.39102 -29.0485 25.8822
head 4.71967 -14.8562 8.34463
rclavicle 1.82882e-014 -1.19271e-014
rhumerus -14.4739 33.4772 -55.843
rradius 22.6028
rwrist -5.62487
rhand 11.0852 30.607
rfingers 7.12502
rthumb 36.1548 4.3287
lclavicle 1.82882e-014 -1.19271e-014
lhumerus -39.5943 9.60666 43.822
lradius 69.0302
lwrist 24.8461
lhand -31.2017 24.2529
lfingers 7.12502
lthumb -4.47791 54.1855
rfemur -14.7156 -10.2185 1.98427
rtibia 34.2642
rfoot -2.37128 -12.8922
rtoes -13.0592
lfemur -47.1503 -8.75614 0.0562411
ltibia 66.6506
lfoot -14.5488 -3.40933
ltoes -14.7962
354
root 11.4151 16.1873 7.60472 -18.0589 52.0391 -18.9464
lowerback 18.2244 2.16232 3.85422
upperback 8.92993 3.82837 1.71507
thorax -0.485697 2.13597 -1.05524
lowerneck 6.1897 -20.6231 -16.6989
upperneck -2.78271 -29.2144 25.7746
head 4.59811 -14.9454 8.2492
rclavicle -6.36111e-015 -4.77083e-015
rhumerus -14.0268 34.2884 -55.519
rradius 23.8115
rwrist -9.08046
rhand 13.0262 29.3085
rfingers 7.12502
rthumb 37.9906 3.50671
lclavicle -6.36111e-015 -4.77083e-015
lhumerus -39.4942 9.66952 46.1784
lradius 71.2743
lwrist 24.4472
lhand -30.2705 24.4901
lfingers 7.12502
lthumb -3.57869 54.4398
rfemur -15.7675 -12.5501 3.31819
rtibia 35.5751
rfoot -2.5655 -11.6296
rtoes -12.3979
lfemur -47.4246 -9.38243 1.35971
ltibia 66.4224
lfoot -14.9165 -2.38189
ltoes -15.0167
355
root 11.3429 16.2227 7.74307 -17.9611 52.5608 -19.044
lowerback 17.9035 2.35821 3.20647
upperback 8.9986 3.97636 1.95494
thorax -0.306194 2.18979 -0.448525
lowerneck 6.12299 -20.734 -16.164
upperneck -2.74668 -29.2703 25.1928
head 4.44596 -14.9656 8.0219
rclavicle 1.07344e-014 -1.74931e-014
rhumerus -13.9003 35.0163 -55.3348
rradius 24.7992
rwrist -11.2597
rhand 13.1308 28.9821
rfingers 7.12502
rthumb 38.0893 3.20723
lclavicle 1.07344e-014 -1.74931e-014
lhumerus -39.7626 9.5844 48.353
lradius 73.2088
lwrist 23.2335
lhand -29.4893 21.2972
lfingers 7.12502
lthumb -2.82426 51.2583
rfemur -16.0352 -14.2477 3.70838
rtibia 36.2686
rfoot -2.74555 -10.8649
rtoes -13.7925
lfemur -47.4116 -9.90885 1.67915
ltibia 66.1017
lfoot -15.0292 -1.43793
ltoes -14.884
356
root 11.267 16.2626 7.88852 -17.4053 53.4328 -18.336
lowerback 17.8411 2.49018 1.87846
upperback 9.0247 3.94701 2.04661
thorax -0.346815 2.13219 0.397563
lowerneck 5.96037 -20.7775 -15.6539
upperneck -2.34429 -29.2787 24.469
head 4.38883 -14.9397 7.74543
rclavicle -1.86858e-014 7.95139e-016
rhumerus -13.6922 35.4875 -55.069
rradius 25.6795
rwrist -12.5956
rhand 12.8277 29.2304
rfingers 7.12502
rthumb 37.8031 3.3779
lclavicle -1.86858e-014 7.95139e-016
lhumerus -40.1616 9.50585 50.4991
lradius 74.7646
lwrist 21.2504
lhand -29.4093 17.8221
lfingers 7.12502
lthumb -2.74703 47.7841
rfemur -15.7599 -15.2278 3.38424
rtibia 36.7198
rfoot -3.31612 -10.5659
rtoes -17.945
lfemur -47.3026 -10.5804 1.23385
ltibia 65.744
lfoot -14.9812 -0.132151
ltoes -13.8693
